<?xml version="1.0" encoding="UTF-8"?><svg id="Ebene_1" xmlns="http://www.w3.org/2000/svg" viewBox="0 0 750 780"><defs><style>.cls-3{fill:#000000;}</style></defs><g transform="translate(-350 -180)"><path class="cls-3" d="M857.34,333.02l-5.03-119.58-13.97,42.07-57.25-96.33-18.65,57.65c-20.29-5.85-40.57-11.7-60.86-17.56-58.28.48-116.56.96-174.84,1.45l120.39,34.76-94.11,2.54-146.68,42.39,150.07-17.8c-35.32,11.51-70.64,23.02-105.96,34.54-41.27,21.55-82.53,43.11-123.8,64.66,47.28-12.97,94.55-25.94,141.83-38.9-54.52,47.65-109.04,95.3-163.55,142.95,47.65-23.61,95.3-47.22,142.95-70.83-28.33,30.91-56.66,61.82-85,92.72-24.04,39.06-48.08,78.13-72.12,117.19,22.99-23.67,45.97-47.35,68.96-71.02l100.04-78-100.04,168.72,103.43-63.59-43.24,143.28,85.63-125.48-23.74,157.7-158.54,144.13,196.7-97.5,61.89-85.63,193.81,115.3,68.97-25,128.46-179.32,77.59,31.04,10.35,23.28-10.35,28.45,59.49,59.49,16.38-58.62-26.73-66.38-34.48-10.35-89.66-59.49-39.66.86-129.32,102.59-157.77-97.42,157.77,75.01,27.59-21.55-90.52-83.63-30.17-50.87,1.72-62.94,21.55,36.21,44.83,17.24,13.79,30.17c.93,16.7,1.85,33.41,2.78,50.11,19.83,2.1,39.66,4.2,59.49,6.3,7.12-23.69,14.24-47.38,21.36-71.07l-12.93-78.45,9.48-22.42-24.72-64.27-15.8-10.74-36.21-75.01-21.55,61.21-90.52-14.66-107.77,32.76-86.21,83.63-22.42,95.7,8.62-104.32,87.08-96.56,119.84-37.07,85.35,15.52,24.14-68.11,61.84,128.84Z"/><polygon class="cls-3" points="845.31 327.29 957.91 218.26 859.61 368.4 845.31 327.29"/><polygon class="cls-3" points="919.57 707.25 964.57 642.33 1018.43 654.87 1035.4 698.4 1006.63 802.43 1003.68 834.9 949.08 876.21 885.63 876.95 929.9 807.6 954.24 811.29 973.43 793.58 980.81 710.94 919.57 707.25"/><polygon class="cls-3" points="444.99 1025.72 615.17 951.82 657.96 838.04 598.64 926.53 444.99 1025.72"/><polygon class="cls-3" points="626.84 970.29 706.58 932.37 766.87 833.18 595.72 727.18 733.81 841.93 698.8 915.83 626.84 970.29"/><polygon class="cls-3" points="578.89 745.35 537.29 815.03 400.01 877.43 554.97 851.43 578.89 745.35"/></g></svg>
